<svg xmlns="http://www.w3.org/2000/svg" width="112" height="28" viewBox="0 0 112 28" fill="none">
  <path d="M27.4401 14.0005C27.4401 21.4233 21.4228 27.4405 14.0001 27.4405C6.57735 27.4405 0.560059 21.4233 0.560059 14.0005C0.560059 6.57784 6.57735 0.560547 14.0001 0.560547C21.4228 0.560547 27.4401 6.57784 27.4401 14.0005Z" fill="#FFB852"/>
  <path fill-rule="evenodd" clip-rule="evenodd" d="M28 14C28 21.732 21.732 28 14 28C6.26801 28 0 21.732 0 14C0 6.26801 6.26801 0 14 0C21.732 0 28 6.26801 28 14ZM14 27.44C21.4227 27.44 27.44 21.4227 27.44 14C27.44 6.57729 21.4227 0.56 14 0.56C6.57729 0.56 0.56 6.57729 0.56 14C0.56 21.4227 6.57729 27.44 14 27.44Z" fill="black"/>
  <path d="M9.22008 17.8907C9.22183 17.9801 9.22315 18.0325 9.09956 18.0339L7.49899 18.0499L7.51693 19.5016L10.3068 19.4714L10.3329 21.581L11.72 21.5645L11.6938 19.4549L12.556 19.4458L12.5814 21.5526L13.9009 21.5383L13.8776 19.4279L14.8699 19.4188C15.5307 19.4099 17.8899 18.8225 17.8585 16.6337C17.8771 16.0414 17.6947 15.4602 17.3411 14.9847C16.9875 14.5091 16.4834 14.1672 15.9108 14.0144C15.9108 14.0144 17.2443 13.1908 17.0992 11.8096C16.9541 10.4284 15.8673 10.0532 15.2419 9.85453C14.7561 9.7214 14.2566 9.64437 13.7532 9.62496L13.7267 7.41937L12.459 7.44176L12.4883 9.63423L11.4691 9.64726L11.4491 7.44305L10.1669 7.46924L10.1926 9.67193L7.50507 9.7039L7.5169 11.0023L8.99045 10.9848C9.13875 10.9831 9.13959 11.0573 9.14015 11.1067L9.22008 17.8907ZM11.4803 10.9551L13.0469 10.938C13.3159 10.9357 14.6255 11.1441 14.6316 12.2549C14.6418 12.5594 14.5425 12.8575 14.3518 13.0951C14.1611 13.3327 13.8915 13.4941 13.592 13.55C13.4721 13.5812 13.3493 13.5999 13.2255 13.6058L11.4982 13.6247L11.4803 10.9551ZM11.5474 15.0062L13.9958 14.9843C14.1731 14.9855 14.3482 15.0228 14.5105 15.094C14.6728 15.1652 14.8189 15.2687 14.9399 15.3983C15.0608 15.5278 15.1541 15.6807 15.214 15.8475C15.2739 16.0143 15.2992 16.1915 15.2883 16.3684C15.2998 17.2517 14.5328 17.6479 14.1298 17.7535C14.0708 17.7709 14.0098 17.7807 13.9484 17.7825L11.5858 17.813L11.5474 15.0062Z" fill="#FFE3BD"/>
  <path fill-rule="evenodd" clip-rule="evenodd" d="M8.6553 17.478L6.93221 17.4952L6.96399 20.0673L9.75388 20.0371L9.78002 22.1473L12.287 22.1175L12.287 22.1155L14.4671 22.0919L14.4439 19.9825L14.8752 19.9785L14.8777 19.9785C15.3056 19.9727 16.1623 19.7966 16.9226 19.3171C17.7062 18.8229 18.4332 17.9705 18.4187 16.6381C18.4382 15.9239 18.2171 15.2238 17.7906 14.6502C17.5543 14.3324 17.2626 14.0638 16.9321 13.8556C16.9514 13.8337 16.9706 13.8111 16.9899 13.788C17.3608 13.3427 17.7503 12.6454 17.6563 11.7508C17.5669 10.8995 17.1757 10.3271 16.6983 9.94921C16.2423 9.58829 15.7252 9.42016 15.4116 9.32053L15.4009 9.31713L15.3901 9.31416C15.0347 9.21679 14.6727 9.14709 14.3071 9.10554L14.28 6.84923L12.0043 6.88942L12.0041 6.87131L9.60056 6.92041L9.62625 9.11835L6.94011 9.1503L6.96215 11.5686L8.58544 11.5494L8.6553 17.478ZM10.1927 9.67165L7.50518 9.70362L7.51701 11.002L8.99056 10.9845C9.13886 10.9829 9.1397 11.057 9.14026 11.1064L9.22019 17.8904L9.22021 17.8911C9.22194 17.9801 9.22296 18.0322 9.09967 18.0336L7.4991 18.0496L7.51704 19.5013L10.3069 19.4711L10.333 21.5807L11.72 21.5642L11.694 19.4546L12.5561 19.4455L12.5815 21.5523L13.901 21.538L13.8777 19.4276L14.8701 19.4185C15.5309 19.4096 17.89 18.8222 17.8586 16.6334C17.8772 16.0411 17.6948 15.4599 17.3412 14.9844C17.1191 14.6857 16.8375 14.4396 16.517 14.2601C16.3272 14.1539 16.1238 14.0709 15.9109 14.0141C15.9109 14.0141 16.1496 13.8667 16.4141 13.592C16.7746 13.2174 17.1831 12.6061 17.0993 11.8093C16.9542 10.4281 15.8674 10.0529 15.2421 9.85425C14.7562 9.72111 14.2567 9.64409 13.7533 9.62468L13.7268 7.41909L12.4591 7.44148L12.4884 9.63395L11.4692 9.64698L11.4492 7.44277L10.167 7.46896L10.1927 9.67165ZM14.6317 12.2547C14.6256 11.1438 13.316 10.9354 13.047 10.9378L11.4804 10.9548L11.4983 13.6244L13.2256 13.6055C13.3494 13.5996 13.4722 13.5809 13.5921 13.5497C13.8917 13.4938 14.1612 13.3324 14.3519 13.0948C14.5426 12.8572 14.6419 12.5592 14.6317 12.2547ZM13.2082 13.0456C13.2903 13.0411 13.3717 13.0284 13.4513 13.0077L13.4702 13.0028L13.4894 12.9992C13.6573 12.9679 13.8083 12.8774 13.9152 12.7443C14.0221 12.6111 14.0777 12.4441 14.072 12.2734L14.0717 12.2656L14.0717 12.2577C14.0702 11.9764 13.9243 11.8046 13.6769 11.6742C13.5494 11.607 13.4089 11.561 13.283 11.5324C13.2211 11.5183 13.1663 11.5092 13.1231 11.5039C13.1016 11.5012 13.084 11.4996 13.0708 11.4987C13.0589 11.4978 13.0528 11.4978 13.0519 11.4977C13.0517 11.4977 13.0517 11.4977 13.0519 11.4977L12.0441 11.5087L12.0546 13.0583L13.2082 13.0456ZM15.2884 16.3682C15.2993 16.1913 15.274 16.014 15.2141 15.8472C15.1542 15.6804 15.061 15.5275 14.94 15.398C14.819 15.2684 14.6729 15.1649 14.5106 15.0937C14.3483 15.0225 14.1732 14.9852 13.996 14.984L11.5475 15.006L11.5859 17.8124L13.9485 17.7822C14.0099 17.7804 14.0709 17.7707 14.1299 17.7533C14.533 17.6476 15.2999 17.2514 15.2884 16.3682ZM13.9348 17.2224C13.9472 17.2218 13.9595 17.2197 13.9715 17.2162L13.9797 17.2137L13.9879 17.2116C14.1224 17.1763 14.326 17.0877 14.4843 16.9413C14.6294 16.807 14.7318 16.6321 14.7284 16.3754L14.7282 16.3545L14.7294 16.3337C14.7357 16.2327 14.7213 16.1316 14.6871 16.0364C14.6529 15.9413 14.5997 15.8541 14.5307 15.7802C14.4617 15.7063 14.3783 15.6472 14.2857 15.6066C14.1943 15.5665 14.0957 15.5452 13.9959 15.544L12.1151 15.5609L12.1382 17.2455L13.9348 17.2224Z" fill="black"/>
  <path d="M13.1585 2.9598C15.3436 2.79315 17.5269 3.2788 19.4328 4.35196L19.1054 4.90057C17.3127 3.89484 15.2607 3.44001 13.207 3.59663C11.0602 3.76036 9.01652 4.58428 7.35641 5.95537C5.69629 7.32646 4.50101 9.17758 3.93451 11.2548C3.36801 13.3321 3.45804 15.5337 4.19224 17.5578C4.92644 19.5818 6.26886 21.3292 8.03537 22.5602C9.80188 23.7911 11.906 24.4455 14.059 24.4334C16.2121 24.4213 18.3087 23.7434 20.0613 22.4926C21.7378 21.2962 23.021 19.6316 23.752 17.7104L24.355 17.9215C23.5803 19.967 22.2161 21.7395 20.4323 23.0125C18.5725 24.3398 16.3475 25.0592 14.0626 25.072C11.7778 25.0849 9.54487 24.3905 7.67023 23.0842C5.79558 21.7778 4.37098 19.9235 3.59184 17.7756C2.8127 15.6276 2.71716 13.2912 3.31834 11.0868C3.91952 8.88238 5.18796 6.91795 6.9497 5.46293C8.71144 4.00791 10.8802 3.13356 13.1585 2.9598Z" fill="black"/>
  <path d="M24.5943 14.4081H20.2493V13.2203L21.6807 11.7686C22.1883 11.2474 22.5402 10.8481 22.7365 10.5706C22.9396 10.2932 23.0411 9.99874 23.0411 9.68741C23.0411 9.36931 22.9565 9.14597 22.7873 9.01738C22.6248 8.88878 22.3914 8.82449 22.0868 8.82449C21.6333 8.82449 21.1393 8.8651 20.6046 8.94631L20.3609 8.97677L20.2899 7.8905C20.9531 7.68746 21.6401 7.58594 22.3507 7.58594C23.772 7.58594 24.4827 8.22552 24.4827 9.50468C24.4827 10.0055 24.3744 10.4387 24.1578 10.8041C23.9412 11.1696 23.5487 11.6129 22.9802 12.1341L21.8127 13.1899H24.5943V14.4081Z" fill="#FFDFB6"/>
  <path fill-rule="evenodd" clip-rule="evenodd" d="M25.154 14.9676H19.689V12.9901L21.2792 11.3773C21.2797 11.3769 21.2801 11.3765 21.2805 11.3761C21.7845 10.8585 22.1099 10.4859 22.279 10.2467L22.2816 10.243L22.2843 10.2394C22.4248 10.0473 22.4808 9.86687 22.4808 9.68687C22.4808 9.57442 22.4654 9.51027 22.4536 9.47915C22.4497 9.46884 22.4466 9.46303 22.4449 9.46021L22.4437 9.45933L22.4394 9.4559C22.4129 9.43496 22.3221 9.38394 22.0865 9.38394C21.6659 9.38394 21.2004 9.42165 20.6884 9.49942L20.6811 9.50053L19.8406 9.60558L19.7018 7.48422L20.1257 7.35448C20.8433 7.13478 21.5856 7.02539 22.3504 7.02539C23.1337 7.02539 23.8257 7.20035 24.324 7.64883C24.8335 8.10741 25.0424 8.7621 25.0424 9.50413C25.0424 10.0873 24.9156 10.6228 24.6393 11.0891C24.3806 11.5256 23.94 12.013 23.3583 12.5463L23.3555 12.5489L23.2665 12.6293H25.154V14.9676ZM21.8124 13.1893L22.9799 12.1335C23.5484 11.6124 23.9409 11.1691 24.1575 10.8036C24.3741 10.4381 24.4824 10.005 24.4824 9.50413C24.4824 8.22497 23.7717 7.58539 22.3504 7.58539C21.6398 7.58539 20.9528 7.68691 20.2896 7.88995L20.3606 8.97622L20.6043 8.94577C20.7101 8.92969 20.8144 8.91521 20.917 8.90231C21.333 8.85006 21.7228 8.82394 22.0865 8.82394C22.391 8.82394 22.6245 8.88824 22.787 9.01683C22.9562 9.14542 23.0408 9.36877 23.0408 9.68687C23.0408 9.9982 22.9393 10.2926 22.7362 10.5701C22.5399 10.8476 22.188 11.2469 21.6804 11.768L20.249 13.2198V14.4076H24.594V13.1893H21.8124Z" fill="black"/>
  <path d="M27.4401 14.0005C27.4401 21.4233 21.4228 27.4405 14.0001 27.4405C6.57735 27.4405 0.560059 21.4233 0.560059 14.0005C0.560059 6.57784 6.57735 0.560547 14.0001 0.560547C21.4228 0.560547 27.4401 6.57784 27.4401 14.0005Z" fill="#FFB852"/>
  <path fill-rule="evenodd" clip-rule="evenodd" d="M28 14C28 21.732 21.732 28 14 28C6.26801 28 0 21.732 0 14C0 6.26801 6.26801 0 14 0C21.732 0 28 6.26801 28 14ZM14 27.44C21.4227 27.44 27.44 21.4227 27.44 14C27.44 6.57729 21.4227 0.56 14 0.56C6.57729 0.56 0.56 6.57729 0.56 14C0.56 21.4227 6.57729 27.44 14 27.44Z" fill="black"/>
  <path d="M9.2196 17.8907C9.22134 17.9801 9.22266 18.0325 9.09907 18.0339L7.4985 18.0499L7.51644 19.5016L10.3063 19.4714L10.3324 21.581L11.7195 21.5645L11.6934 19.4549L12.5555 19.4458L12.5809 21.5526L13.9004 21.5383L13.8771 19.4279L14.8695 19.4188C15.5303 19.4099 17.8894 18.8225 17.858 16.6337C17.8766 16.0414 17.6942 15.4602 17.3406 14.9847C16.987 14.5091 16.4829 14.1672 15.9103 14.0144C15.9103 14.0144 17.2438 13.1908 17.0987 11.8096C16.9536 10.4284 15.8668 10.0532 15.2415 9.85453C14.7556 9.7214 14.2561 9.64437 13.7527 9.62496L13.7262 7.41937L12.4585 7.44176L12.4878 9.63423L11.4686 9.64726L11.4486 7.44305L10.1664 7.46924L10.1921 9.67193L7.50458 9.7039L7.51641 11.0023L8.98996 10.9848C9.13826 10.9831 9.1391 11.0573 9.13966 11.1067L9.2196 17.8907ZM11.4798 10.9551L13.0464 10.938C13.3154 10.9357 14.625 11.1441 14.6311 12.2549C14.6413 12.5594 14.542 12.8575 14.3513 13.0951C14.1606 13.3327 13.8911 13.4941 13.5915 13.55C13.4716 13.5812 13.3488 13.5999 13.225 13.6058L11.4977 13.6247L11.4798 10.9551ZM11.5469 15.0062L13.9954 14.9843C14.1726 14.9855 14.3477 15.0228 14.51 15.094C14.6723 15.1652 14.8184 15.2687 14.9394 15.3983C15.0604 15.5278 15.1536 15.6807 15.2135 15.8475C15.2734 16.0143 15.2987 16.1915 15.2878 16.3684C15.2993 17.2517 14.5324 17.6479 14.1293 17.7535C14.0703 17.7709 14.0093 17.7807 13.9479 17.7825L11.5853 17.813L11.5469 15.0062Z" fill="#FFE3BD"/>
  <path fill-rule="evenodd" clip-rule="evenodd" d="M8.65481 17.478L6.93172 17.4952L6.9635 20.0673L9.75339 20.0371L9.77954 22.1473L12.2865 22.1175L12.2865 22.1155L14.4666 22.0919L14.4434 19.9825L14.8747 19.9785L14.8772 19.9785C15.3051 19.9727 16.1618 19.7966 16.9221 19.3171C17.7058 18.8229 18.4327 17.9705 18.4183 16.6381C18.4377 15.9239 18.2166 15.2237 17.7901 14.6502C17.5538 14.3324 17.2621 14.0638 16.9316 13.8556C16.9509 13.8337 16.9701 13.8111 16.9894 13.788C17.3603 13.3426 17.7498 12.6454 17.6558 11.7508C17.5664 10.8995 17.1753 10.3271 16.6978 9.94921C16.2419 9.58829 15.7247 9.42016 15.4111 9.32053L15.4004 9.31713L15.3896 9.31416C15.0342 9.21679 14.6722 9.14709 14.3067 9.10554L14.2796 6.84923L12.0038 6.88942L12.0036 6.87131L9.60008 6.92041L9.62576 9.11835L6.93962 9.1503L6.96166 11.5686L8.58495 11.5494L8.65481 17.478ZM10.1923 9.67165L7.50469 9.70362L7.51652 11.002L8.99007 10.9845C9.13837 10.9829 9.13921 11.057 9.13977 11.1064L9.21971 17.8904L9.21972 17.8911C9.22145 17.9801 9.22247 18.0322 9.09919 18.0336L7.49861 18.0496L7.51655 19.5013L10.3064 19.4711L10.3326 21.5807L11.7195 21.5642L11.6935 19.4546L12.5557 19.4455L12.581 21.5523L13.9005 21.538L13.8772 19.4276L14.8696 19.4185C15.5304 19.4096 17.8895 18.8222 17.8581 16.6334C17.8767 16.0411 17.6943 15.4599 17.3407 14.9844C17.1186 14.6856 16.8371 14.4396 16.5165 14.2601C16.3267 14.1539 16.1233 14.0709 15.9104 14.0141C15.9104 14.0141 16.1491 13.8667 16.4136 13.592C16.7742 13.2174 17.1826 12.6061 17.0989 11.8093C16.9538 10.4281 15.8669 10.0529 15.2416 9.85425C14.7557 9.72111 14.2562 9.64409 13.7529 9.62468L13.7264 7.41909L12.4586 7.44148L12.4879 9.63395L11.4687 9.64698L11.4488 7.44276L10.1665 7.46896L10.1923 9.67165ZM14.6312 12.2546C14.6251 11.1438 13.3155 10.9354 13.0465 10.9378L11.4799 10.9548L11.4979 13.6244L13.2251 13.6055C13.3489 13.5996 13.4717 13.5809 13.5917 13.5497C13.8912 13.4938 14.1607 13.3324 14.3514 13.0948C14.5422 12.8572 14.6414 12.5592 14.6312 12.2546ZM13.2077 13.0456C13.2898 13.0411 13.3712 13.0284 13.4508 13.0077L13.4697 13.0028L13.4889 12.9992C13.6568 12.9679 13.8078 12.8774 13.9147 12.7443C14.0216 12.6111 14.0772 12.4441 14.0715 12.2734L14.0712 12.2656L14.0712 12.2577C14.0697 11.9764 13.9238 11.8046 13.6764 11.6742C13.5489 11.607 13.4084 11.561 13.2825 11.5324C13.2206 11.5183 13.1658 11.5092 13.1226 11.5039C13.1011 11.5012 13.0835 11.4996 13.0703 11.4987C13.0585 11.4978 13.0523 11.4978 13.0514 11.4977C13.0512 11.4977 13.0513 11.4977 13.0514 11.4977L12.0436 11.5087L12.0541 13.0583L13.2077 13.0456ZM15.2879 16.3682C15.2988 16.1913 15.2735 16.014 15.2136 15.8472C15.1537 15.6804 15.0605 15.5275 14.9395 15.398C14.8185 15.2684 14.6724 15.1649 14.5101 15.0937C14.3478 15.0225 14.1727 14.9852 13.9955 14.984L11.547 15.006L11.5854 17.8124L13.948 17.7822C14.0095 17.7804 14.0704 17.7707 14.1294 17.7533C14.5325 17.6476 15.2994 17.2514 15.2879 16.3682ZM13.9343 17.2224C13.9467 17.2218 13.959 17.2197 13.971 17.2161L13.9792 17.2137L13.9874 17.2116C14.1219 17.1763 14.3255 17.0877 14.4838 16.9413C14.629 16.807 14.7313 16.6321 14.7279 16.3754L14.7277 16.3545L14.729 16.3337C14.7352 16.2327 14.7208 16.1316 14.6866 16.0364C14.6524 15.9413 14.5992 15.8541 14.5302 15.7802C14.4612 15.7063 14.3778 15.6472 14.2852 15.6066C14.1938 15.5665 14.0952 15.5452 13.9954 15.544L12.1146 15.5609L12.1377 17.2455L13.9343 17.2224Z" fill="black"/>
  <path d="M13.158 2.9598C15.3431 2.79315 17.5264 3.2788 19.4323 4.35196L19.1049 4.90057C17.3122 3.89484 15.2603 3.44001 13.2066 3.59663C11.0597 3.76036 9.01603 4.58428 7.35592 5.95537C5.6958 7.32646 4.50053 9.17758 3.93403 11.2548C3.36753 13.3321 3.45755 15.5337 4.19175 17.5578C4.92595 19.5818 6.26837 21.3292 8.03488 22.5602C9.8014 23.7911 11.9055 24.4455 14.0586 24.4334C16.2116 24.4213 18.3082 23.7434 20.0608 22.4926C21.7373 21.2962 23.0205 19.6316 23.7515 17.7104L24.3545 17.9215C23.5798 19.967 22.2156 21.7395 20.4318 23.0125C18.572 24.3398 16.347 25.0592 14.0621 25.072C11.7773 25.0849 9.54438 24.3905 7.66974 23.0842C5.79509 21.7778 4.3705 19.9235 3.59135 17.7756C2.81221 15.6276 2.71667 13.2912 3.31785 11.0868C3.91903 8.88238 5.18747 6.91795 6.94921 5.46293C8.71095 4.00791 10.8797 3.13356 13.158 2.9598Z" fill="black"/>
  <path d="M24.5939 14.4081H20.2488V13.2203L21.6802 11.7686C22.1878 11.2474 22.5398 10.8481 22.736 10.5706C22.9391 10.2932 23.0406 9.99874 23.0406 9.68741C23.0406 9.36932 22.956 9.14597 22.7868 9.01738C22.6244 8.88879 22.3909 8.82449 22.0863 8.82449C21.6328 8.82449 21.1388 8.8651 20.6041 8.94631L20.3605 8.97677L20.2894 7.8905C20.9527 7.68746 21.6396 7.58594 22.3503 7.58594C23.7715 7.58594 24.4822 8.22552 24.4822 9.50468C24.4822 10.0055 24.3739 10.4387 24.1573 10.8041C23.9407 11.1696 23.5482 11.6129 22.9797 12.1341L21.8122 13.1899H24.5939V14.4081Z" fill="#FFDFB6"/>
  <path fill-rule="evenodd" clip-rule="evenodd" d="M25.154 14.9676H19.689V12.9901L21.2792 11.3773C21.2797 11.3769 21.2801 11.3765 21.2805 11.3761C21.7845 10.8585 22.1099 10.4859 22.279 10.2467L22.2816 10.243L22.2843 10.2394C22.4248 10.0473 22.4808 9.86687 22.4808 9.68687C22.4808 9.57442 22.4654 9.51027 22.4536 9.47915C22.4497 9.46884 22.4466 9.46303 22.4449 9.46021L22.4437 9.45933L22.4394 9.4559C22.4129 9.43496 22.3221 9.38394 22.0865 9.38394C21.6659 9.38394 21.2004 9.42165 20.6884 9.49942L20.6811 9.50053L19.8406 9.60558L19.7018 7.48422L20.1257 7.35448C20.8433 7.13478 21.5856 7.02539 22.3504 7.02539C23.1337 7.02539 23.8257 7.20035 24.324 7.64883C24.8335 8.10741 25.0424 8.7621 25.0424 9.50413C25.0424 10.0873 24.9156 10.6228 24.6393 11.0891C24.3806 11.5256 23.94 12.013 23.3583 12.5463L23.3555 12.5489L23.2665 12.6293H25.154V14.9676ZM21.8124 13.1893L22.9799 12.1335C23.5484 11.6124 23.9409 11.1691 24.1575 10.8036C24.3741 10.4381 24.4824 10.005 24.4824 9.50413C24.4824 8.22497 23.7717 7.58539 22.3504 7.58539C21.6398 7.58539 20.9528 7.68691 20.2896 7.88995L20.3606 8.97622L20.6043 8.94577C20.7101 8.92969 20.8144 8.91521 20.917 8.90231C21.333 8.85006 21.7228 8.82394 22.0865 8.82394C22.391 8.82394 22.6245 8.88824 22.787 9.01683C22.9562 9.14542 23.0408 9.36877 23.0408 9.68687C23.0408 9.9982 22.9393 10.2926 22.7362 10.5701C22.5399 10.8476 22.188 11.2469 21.6804 11.768L20.249 13.2198V14.4076H24.594V13.1893H21.8124Z" fill="black"/>
  <path fill-rule="evenodd" clip-rule="evenodd" d="M46.5863 12.0427H43.385V10.7955L44.3967 9.9778C44.8216 9.63596 45.0341 9.37264 45.0341 9.18786C45.0341 9.04928 44.8632 8.97998 44.5214 8.97998L43.4681 9.06313L43.4127 7.69113C44.0871 7.60798 44.6692 7.56641 45.1589 7.56641C45.6485 7.56641 46.0089 7.67266 46.2398 7.88515C46.4708 8.09765 46.5863 8.40716 46.5863 8.81368C46.5863 9.21096 46.5263 9.51585 46.4061 9.72835C46.286 9.93161 46.0874 10.1349 45.8102 10.3381L45.2836 10.7262H46.5863V12.0427ZM91.1712 17.1704C90.4228 17.1704 89.91 16.9302 89.6329 16.4498C89.3649 15.9601 89.231 15.1471 89.231 14.0107C89.231 12.865 89.3695 12.0335 89.6467 11.5161C89.9239 10.9987 90.432 10.74 91.1712 10.74C91.9103 10.74 92.4184 10.9987 92.6956 11.5161C92.9728 12.0335 93.1114 12.865 93.1114 14.0107C93.1114 15.1471 92.9728 15.9601 92.6956 16.4498C92.4277 16.9302 91.9195 17.1704 91.1712 17.1704ZM91.1712 18.8335C92.6032 18.8335 93.6103 18.4454 94.1923 17.6693C94.7836 16.884 95.0793 15.6598 95.0793 13.9968C95.0793 12.3338 94.7836 11.1004 94.1923 10.2966C93.6103 9.48353 92.6032 9.07701 91.1712 9.07701C89.7391 9.07701 88.7274 9.48353 88.1361 10.2966C87.5541 11.1004 87.263 12.3338 87.263 13.9968C87.263 15.6598 87.5541 16.884 88.1361 17.6693C88.7274 18.4454 89.7391 18.8335 91.1712 18.8335ZM98.4931 15.5074V18.6671H96.5806V9.2433H100.239C102.457 9.2433 103.565 10.2781 103.565 12.3476C103.565 13.5764 103.103 14.4818 102.179 15.0639L103.524 18.6671H101.431L100.336 15.5074H98.4931ZM100.267 13.8721C100.72 13.8721 101.057 13.7335 101.279 13.4563C101.5 13.1791 101.611 12.8142 101.611 12.3615C101.611 11.9088 101.491 11.5484 101.251 11.2805C101.02 11.0126 100.683 10.8786 100.239 10.8786H98.4931V13.8721H100.267ZM106.948 18.6671H105.036V9.2433H106.948V13.387L108.223 13.2484L109.776 9.2433H111.951L109.9 13.9691L112.007 18.6671H109.803L108.223 14.9115L106.948 15.0501V18.6671ZM74.171 9.2433H76.1805L77.3446 17.0318H77.5525L79.2432 9.2433H81.4606L83.1513 17.0318H83.3592L84.5233 9.2433H86.5328L84.7312 18.6671H81.8348L80.3519 11.5023L78.869 18.6671H75.9726L74.171 9.2433ZM66.9316 9.2433V10.9341H69.4538V18.6671H71.3663V10.9341H73.8609V9.2433H66.9316ZM60.2418 18.6671V9.2433H66.3396V10.9063H62.1543V13.1098H65.5081V14.7452H62.1543V17.0041H66.3396V18.6671H60.2418ZM50.7717 9.2433V18.6671H52.6842V10.9063H52.8228L55.1787 18.6671H58.3246V9.2433H56.4121V17.0041H56.2736L54.0007 9.2433H50.7717ZM39.5132 9.2433H35.813V18.6671H39.5687C40.5388 18.6671 41.2917 18.4454 41.8276 18.0019C42.3635 17.5585 42.6314 16.8794 42.6314 15.9647C42.6314 15.3734 42.5298 14.9115 42.3265 14.5789C42.1325 14.2463 41.8276 13.9922 41.4119 13.8166C41.7907 13.5764 42.0586 13.3039 42.2157 12.999C42.3727 12.6849 42.4513 12.2645 42.4513 11.7378C42.4513 10.8601 42.2064 10.2273 41.7167 9.83922C41.2271 9.44194 40.4926 9.2433 39.5132 9.2433ZM37.7255 14.7313H39.4717C40.2847 14.7313 40.6912 15.1101 40.6912 15.8677C40.6912 16.3112 40.5896 16.6161 40.3863 16.7824C40.1923 16.9487 39.8874 17.0318 39.4717 17.0318H37.7255V14.7313ZM37.7255 10.8786H39.4162C40.1461 10.8786 40.511 11.2528 40.511 12.0012C40.511 12.7495 40.1507 13.1237 39.4301 13.1237H37.7255V10.8786Z" fill="black"/>
</svg>