<svg xmlns="http://www.w3.org/2000/svg" width="32" height="32" viewBox="0 0 32 32" fill="none">
  <mask id="mask0_5022_82" style="mask-type:luminance" maskUnits="userSpaceOnUse" x="5" y="2" width="23" height="28">
    <path d="M27.3125 2H5V30H27.3125V2Z" fill="white"/>
  </mask>
  <g mask="url(#mask0_5022_82)">
    <path d="M20.7394 4.519L26.5811 10.21C27.0783 10.6934 27.3231 11.1825 27.3154 11.6754C27.3077 12.1683 27.0937 12.6176 26.6755 13.0251C26.238 13.4517 25.7658 13.6678 25.2609 13.6773C24.7559 13.6849 24.2548 13.446 23.7575 12.9626L17.7829 7.14269C17.1045 6.4811 16.4492 6.01284 15.819 5.73796C15.1887 5.46308 14.5257 5.41947 13.8319 5.60905C13.1361 5.79673 12.3903 6.28014 11.5904 7.05738C10.488 8.13227 9.96183 9.1408 10.0158 10.083C10.0698 11.0252 10.6171 12.0034 11.656 13.0138L17.6788 18.883C18.1818 19.3721 18.4285 19.8612 18.4208 20.3465C18.4131 20.8337 18.1972 21.283 17.7713 21.6981C17.3473 22.1114 16.879 22.3275 16.3702 22.3446C15.8613 22.3617 15.3545 22.1247 14.8533 21.6356L9.01167 15.9446C8.06151 15.0195 7.37538 14.1437 6.9533 13.3171C6.53122 12.4906 6.37318 11.556 6.48304 10.5133C6.58133 9.62043 6.87235 8.75597 7.35804 7.91807C7.84179 7.08013 8.53563 6.22327 9.4357 5.34554C10.5073 4.30099 11.5307 3.50099 12.5059 2.94365C13.4792 2.3863 14.4216 2.0773 15.3313 2.01284C16.2429 1.94839 17.1411 2.12658 18.0296 2.54744C18.9181 2.96829 19.8201 3.62422 20.7375 4.519H20.7394Z" fill="url(#paint0_linear_5022_82)"/>
    <path d="M11.5742 27.4785L5.73448 21.7875C5.23724 21.3022 4.99247 20.815 5.00018 20.3221C5.00789 19.8292 5.22182 19.38 5.64004 18.9724C6.07754 18.5458 6.54974 18.3297 7.05469 18.3202C7.55965 18.3127 8.06075 18.5496 8.558 19.0349L14.5307 24.8549C15.2111 25.5164 15.8644 25.9847 16.4947 26.2596C17.1249 26.5345 17.7879 26.5762 18.4837 26.3885C19.1794 26.2008 19.9253 25.7174 20.7251 24.9382C21.8276 23.8633 22.3537 22.8548 22.2998 21.9127C22.2458 20.9705 21.6984 19.9923 20.6596 18.98L17.4506 15.8804C16.9476 15.3913 16.7009 14.9022 16.7086 14.4169C16.7163 13.9297 16.9322 13.4804 17.3581 13.0653C17.7821 12.652 18.2505 12.4359 18.7592 12.4188C19.2681 12.4018 19.7749 12.6387 20.2761 13.1278L23.3019 16.0492C24.2521 16.9743 24.9382 17.8501 25.3603 18.6767C25.7824 19.5032 25.9404 20.4378 25.8306 21.4804C25.7323 22.3733 25.4413 23.2378 24.9556 24.0757C24.4718 24.9136 23.778 25.7705 22.8779 26.6482C21.8063 27.6927 20.7829 28.4928 19.8077 29.0501C18.8325 29.6075 17.8901 29.9183 16.9784 29.9828C16.0668 30.0473 15.1687 29.869 14.2802 29.4482C13.3917 29.0273 12.4897 28.3714 11.5723 27.4767L11.5742 27.4785Z" fill="url(#paint1_linear_5022_82)"/>
    <path d="M15.2164 12.8C16.4011 12.8 17.3615 11.8553 17.3615 10.69C17.3615 9.52473 16.4011 8.58008 15.2164 8.58008C14.0317 8.58008 13.0713 9.52473 13.0713 10.69C13.0713 11.8553 14.0317 12.8 15.2164 12.8Z" fill="url(#paint2_radial_5022_82)"/>
  </g>
  <defs>
    <linearGradient id="paint0_linear_5022_82" x1="25.6203" y1="7.8346" x2="7.6164" y2="15.9689" gradientUnits="userSpaceOnUse">
      <stop stop-color="#201C1B"/>
      <stop offset="0.36" stop-color="#77390D"/>
      <stop offset="0.67" stop-color="#EA8101"/>
      <stop offset="1" stop-color="#F4B852"/>
    </linearGradient>
    <linearGradient id="paint1_linear_5022_82" x1="7.19369" y1="24.3974" x2="28.1154" y2="18.067" gradientUnits="userSpaceOnUse">
      <stop stop-color="#1F1D1C"/>
      <stop offset="0.37" stop-color="#77390D"/>
      <stop offset="0.67" stop-color="#EA8101"/>
      <stop offset="1" stop-color="#F4FB52"/>
    </linearGradient>
    <radialGradient id="paint2_radial_5022_82" cx="0" cy="0" r="1" gradientUnits="userSpaceOnUse" gradientTransform="translate(15.2164 10.6919) scale(2.1451 2.10995)">
      <stop stop-color="#F4B852"/>
      <stop offset="0.33" stop-color="#EA8101"/>
      <stop offset="0.64" stop-color="#77390D"/>
      <stop offset="1" stop-color="#211C1D"/>
    </radialGradient>
  </defs>
</svg>