<svg xmlns="http://www.w3.org/2000/svg" width="32" height="32" viewBox="0 0 32 32" fill="none">
  <path d="M11.5665 4C11.5905 4.00946 11.6142 4.0197 11.6386 4.02798C11.8672 4.10522 12.0094 4.29754 12.0161 4.53951C12.0169 4.56591 12.0165 4.59192 12.0165 4.61832C12.0165 6.87763 12.0165 9.13694 12.0158 11.3966C12.0158 11.4585 12.013 11.522 12.0012 11.5827C11.9551 11.8195 11.7482 11.9933 11.5078 12.0027C11.4782 12.0039 11.4487 12.0035 11.4191 12.0035C9.14994 12.0035 6.88078 12.0035 4.61123 12.0031C4.54936 12.0031 4.48512 12.0031 4.42562 11.9893C4.23882 11.946 4.11547 11.827 4.04453 11.6504C4.03271 11.6209 4.01498 11.5941 4 11.5665C4 9.19526 4 6.82443 4 4.4532C4.01419 4.42443 4.03074 4.39685 4.04177 4.36729C4.10246 4.20532 4.21202 4.0934 4.37517 4.03429C4.40158 4.02443 4.42719 4.01143 4.4532 4C6.82443 4 9.19526 4 11.5665 4Z" fill="black"/>
  <path d="M4 20.452C4.01419 20.4233 4.03113 20.3953 4.04217 20.3653C4.11941 20.1521 4.3066 20.0138 4.53478 20.0028C4.56433 20.0012 4.59389 20.0024 4.62345 20.0024C6.88236 20.0024 9.14167 20.0024 11.4006 20.0024C11.44 20.0024 11.4794 20.0008 11.5188 20.0043C11.7978 20.0296 12.0027 20.2443 12.0161 20.5245C12.0173 20.5509 12.0165 20.577 12.0165 20.6034C12.0165 22.8721 12.0165 25.1409 12.0161 27.4101C12.0161 27.4625 12.0134 27.5153 12.0043 27.5665C11.9708 27.7517 11.8632 27.8802 11.6946 27.9594C11.6654 27.9732 11.6359 27.9858 11.6063 27.9992C9.20906 27.9992 6.81143 27.9992 4.41419 27.9992C4.40394 27.9921 4.39488 27.9827 4.38384 27.9787C4.20926 27.9161 4.0934 27.7974 4.03626 27.6205C4.02995 27.6004 4.01261 27.5838 4.00039 27.5657C4 25.1941 4 22.8233 4 20.452Z" fill="black"/>
  <path d="M28.0001 11.6063C27.9844 11.6449 27.9726 11.6859 27.9521 11.7218C27.8539 11.8936 27.7073 11.9913 27.5075 12.0027C27.4878 12.0039 27.4681 12.0035 27.4484 12.0035C25.1607 12.0035 22.8731 12.0035 20.585 12.0027C20.5235 12.0027 20.4597 11.998 20.4005 11.9819C20.1763 11.9208 20.0242 11.7218 20.0171 11.4896C20.0163 11.4632 20.0167 11.4372 20.0167 11.4108C20.0167 9.1393 20.0167 6.86817 20.0171 4.59665C20.0171 4.53793 20.0159 4.47724 20.0293 4.42049C20.0731 4.23488 20.1873 4.10759 20.3655 4.03783C20.395 4.02601 20.4242 4.01261 20.4537 4C22.8246 4.00039 25.1954 4.00039 27.5666 4.00039C27.5997 4.013 27.6328 4.02601 27.666 4.03862C27.8074 4.09222 27.9079 4.18877 27.9702 4.32631C27.9804 4.34877 27.9903 4.37202 28.0001 4.39448C28.0001 6.79842 28.0001 9.20236 28.0001 11.6063Z" fill="black"/>
  <path d="M20.4141 28.0026C20.3916 27.9907 20.37 27.9781 20.3471 27.9675C20.1394 27.8733 20.0275 27.7137 20.0173 27.4847C20.0161 27.4583 20.0169 27.4323 20.0169 27.4059C20.0169 25.1375 20.0169 22.8692 20.0173 20.6008C20.0173 20.5389 20.0176 20.4751 20.0318 20.4152C20.0878 20.1779 20.2888 20.0179 20.5367 20.0065C20.5595 20.0053 20.5828 20.0061 20.6056 20.0061C22.8807 20.0061 25.1554 20.0057 27.4304 20.0073C27.4986 20.0073 27.57 20.012 27.6342 20.0321C27.8072 20.0857 27.9298 20.1969 27.9826 20.3758C27.9849 20.384 27.994 20.3904 27.9995 20.3974C27.9995 22.8014 27.9995 25.2053 27.9995 27.6093C27.994 27.6167 27.9857 27.6238 27.9834 27.6321C27.9443 27.7937 27.8364 27.8946 27.6925 27.9639C27.6637 27.9777 27.6346 27.9903 27.6054 28.0033C25.209 28.0026 22.8113 28.0026 20.4141 28.0026Z" fill="black"/>
  <path d="M16.0135 20.0027C14.8773 20.0027 13.7415 20.0031 12.6054 20.0015C12.5341 20.0015 12.4596 19.9972 12.3918 19.9775C12.1731 19.9137 12.0253 19.7139 12.019 19.4861C12.0186 19.4664 12.0186 19.4467 12.0186 19.427C12.0186 17.1452 12.0182 14.8634 12.0202 12.5817C12.0202 12.5044 12.028 12.4221 12.0552 12.3507C12.1376 12.1324 12.3055 12.0221 12.536 12.0035C12.5589 12.0016 12.5821 12.0027 12.605 12.0027C14.8801 12.0027 17.1555 12.0031 19.4306 12.002C19.5953 12.002 19.7415 12.0422 19.8609 12.1608C19.9583 12.2577 20.0083 12.3759 20.0178 12.5123C20.0202 12.545 20.0186 12.5781 20.0186 12.6108C20.0186 14.8729 20.0186 17.135 20.0178 19.397C20.0178 19.462 20.015 19.529 20.0012 19.5921C19.9484 19.8305 19.7443 19.9976 19.5 20.0015C19.2734 20.0051 19.0468 20.0027 18.8205 20.0027C17.885 20.0027 16.9494 20.0027 16.0135 20.0027Z" fill="black"/>
</svg>