<svg xmlns="http://www.w3.org/2000/svg" width="32" height="32" viewBox="0 0 32 32" fill="none">
  <mask id="path-1-inside-1_5022_51" fill="white">
    <path fill-rule="evenodd" clip-rule="evenodd" d="M18.0436 9.99834L16 0L13.9611 9.97529L8.21047 8.20963L9.97632 13.9609L0 16L9.99889 18.0437L8.21047 23.8685L13.9762 22.0982L16 32L18.0286 22.0752L23.8693 23.8685L22.0762 18.0283L32 16L22.0988 13.9763L23.8693 8.20963L18.0436 9.99834Z"/>
  </mask>
  <path fill-rule="evenodd" clip-rule="evenodd" d="M18.0436 9.99834L16 0L13.9611 9.97529L8.21047 8.20963L9.97632 13.9609L0 16L9.99889 18.0437L8.21047 23.8685L13.9762 22.0982L16 32L18.0286 22.0752L23.8693 23.8685L22.0762 18.0283L32 16L22.0988 13.9763L23.8693 8.20963L18.0436 9.99834Z" fill="#FFB852"/>
  <path d="M16 0L16.9797 -0.200252L15.0203 -0.200252L16 0ZM18.0436 9.99834L17.0638 10.1986L17.2844 11.2775L18.3371 10.9543L18.0436 9.99834ZM13.9611 9.97529L13.6676 10.9312L14.7203 11.2545L14.9409 10.1755L13.9611 9.97529ZM8.21047 8.20963L8.50398 7.25368L6.70091 6.70007L7.25451 8.50315L8.21047 8.20963ZM9.97632 13.9609L10.1766 14.9407L11.2555 14.7201L10.9323 13.6674L9.97632 13.9609ZM0 16L-0.200252 15.0203L-0.200252 16.9797L0 16ZM9.99889 18.0437L10.9548 18.3372L11.2781 17.2845L10.1991 17.0639L9.99889 18.0437ZM8.21047 23.8685L7.25451 23.575L6.70091 25.3781L8.50398 24.8244L8.21047 23.8685ZM13.9762 22.0982L14.9559 21.898L14.7354 20.819L13.6826 21.1423L13.9762 22.0982ZM16 32L15.0203 32.2003H16.9797L16 32ZM18.0286 22.0752L18.3221 21.1192L17.2693 20.796L17.0488 21.8749L18.0286 22.0752ZM23.8693 23.8685L23.5758 24.8244L25.3789 25.3781L24.8253 23.575L23.8693 23.8685ZM22.0762 18.0283L21.8759 17.0486L20.797 17.2691L21.1202 18.3219L22.0762 18.0283ZM32 16L32.2003 16.9797V15.0203L32 16ZM22.0988 13.9763L21.1428 13.6828L20.8196 14.7355L21.8985 14.956L22.0988 13.9763ZM23.8693 8.20963L24.8253 8.50315L25.3789 6.70007L23.5758 7.25368L23.8693 8.20963ZM15.0203 0.200252L17.0638 10.1986L19.0233 9.79809L16.9797 -0.200252L15.0203 0.200252ZM14.9409 10.1755L16.9797 0.200252L15.0203 -0.200252L12.9814 9.77504L14.9409 10.1755ZM7.91696 9.16559L13.6676 10.9312L14.2546 9.01933L8.50398 7.25368L7.91696 9.16559ZM10.9323 13.6674L9.16643 7.91612L7.25451 8.50315L9.02036 14.2544L10.9323 13.6674ZM0.200252 16.9797L10.1766 14.9407L9.77607 12.9812L-0.200252 15.0203L0.200252 16.9797ZM10.1991 17.0639L0.200252 15.0203L-0.200252 16.9797L9.79864 19.0234L10.1991 17.0639ZM9.16643 24.162L10.9548 18.3372L9.04293 17.7502L7.25451 23.575L9.16643 24.162ZM13.6826 21.1423L7.91696 22.9125L8.50398 24.8244L14.2697 23.0542L13.6826 21.1423ZM16.9797 31.7997L14.9559 21.898L12.9964 22.2985L15.0203 32.2003L16.9797 31.7997ZM17.0488 21.8749L15.0203 31.7997L16.9797 32.2003L19.0083 22.2754L17.0488 21.8749ZM24.1628 22.9125L18.3221 21.1192L17.735 23.0311L23.5758 24.8244L24.1628 22.9125ZM21.1202 18.3219L22.9134 24.162L24.8253 23.575L23.0322 17.7348L21.1202 18.3219ZM31.7997 15.0203L21.8759 17.0486L22.2764 19.0081L32.2003 16.9797L31.7997 15.0203ZM21.8985 14.956L31.7997 16.9797L32.2003 15.0203L22.299 12.9965L21.8985 14.956ZM22.9134 7.91612L21.1428 13.6828L23.0547 14.2698L24.8253 8.50315L22.9134 7.91612ZM18.3371 10.9543L24.1628 9.16559L23.5758 7.25368L17.7501 9.04239L18.3371 10.9543Z" fill="black" mask="url(#path-1-inside-1_5022_51)"/>
</svg>