<svg xmlns="http://www.w3.org/2000/svg" width="24" height="24" viewBox="0 0 24 24" fill="none">
  <path d="M12.9962 12.0007L19.7936 5.20273C19.859 5.13734 19.9109 5.05972 19.9464 4.97429C19.9818 4.88886 20 4.7973 20 4.70483C20 4.61237 19.9818 4.5208 19.9464 4.43537C19.9109 4.34995 19.859 4.27232 19.7936 4.20694C19.7282 4.14155 19.6505 4.08969 19.565 4.0543C19.4795 4.01892 19.3879 4.0007 19.2953 4.0007C19.2028 4.0007 19.1112 4.01892 19.0257 4.0543C18.9402 4.08969 18.8625 4.14155 18.7971 4.20694L12.0004 11.0049L5.20292 4.20623C5.13749 4.14085 5.05981 4.08898 4.97432 4.0536C4.88882 4.01821 4.79719 4 4.70466 4C4.61212 4 4.52049 4.01821 4.435 4.0536C4.3495 4.08898 4.27182 4.14085 4.20639 4.20623C4.14096 4.27162 4.08905 4.34924 4.05364 4.43467C4.01823 4.5201 4 4.61166 4 4.70413C4 4.7966 4.01823 4.88816 4.05364 4.97359C4.08905 5.05902 4.14096 5.13664 4.20639 5.20202L11.0038 12L4.20639 18.798C4.14096 18.8634 4.08905 18.941 4.05364 19.0264C4.01823 19.1118 4 19.2034 4 19.2959C4 19.3883 4.01823 19.4799 4.05364 19.5653C4.08905 19.6508 4.14096 19.7284 4.20639 19.7938C4.27182 19.8591 4.3495 19.911 4.435 19.9464C4.52049 19.9818 4.61212 20 4.70466 20C4.79719 20 4.88882 19.9818 4.97432 19.9464C5.05981 19.911 5.13749 19.8591 5.20292 19.7938L12.0004 12.9958L18.7971 19.7938C18.8625 19.8591 18.9402 19.911 19.0257 19.9464C19.1112 19.9818 19.2028 20 19.2953 20C19.3879 20 19.4795 19.9818 19.565 19.9464C19.6505 19.911 19.7282 19.8591 19.7936 19.7938C19.859 19.7284 19.9109 19.6508 19.9464 19.5653C19.9818 19.4799 20 19.3883 20 19.2959C20 19.2034 19.9818 19.1118 19.9464 19.0264C19.9109 18.941 19.859 18.8634 19.7936 18.798L12.9962 12.0007Z" fill="black"/>
</svg>